<?xml version="1.0" standalone="no"?><!DOCTYPE svg PUBLIC "-//W3C//DTD SVG 1.1//EN" "http://www.w3.org/Graphics/SVG/1.1/DTD/svg11.dtd"><svg class="icon" width="200px" height="200.00px" viewBox="0 0 1024 1024" version="1.1" xmlns="http://www.w3.org/2000/svg"><path d="M913.31121248 410.92453031c45.22327089 0 81.85759014 36.85927369 81.85759017 82.33954796 0.00061669 45.46301727-36.6343193 82.34078135-81.85759017 82.34077959H102.12491378c-45.22327089 0-81.89210419-36.87776412-81.89210418-82.34016467 0-45.4821226 36.66883335-82.33954796 81.89210418-82.33954617l811.1862987-0.00061671z m75.26487933-207.51045335c0 45.48089098-36.63555273 82.34078135-81.85759016 82.3407814H95.53220297c-45.22327089 0-81.85759014-36.85927369-81.85759016-82.34016469s36.6343193-82.34016464 81.85759016-82.34016288l811.18629868-0.00061669c45.22142255 0 81.85759014 36.85927369 81.85759016 82.34016286z m-886.45117803 503.93528996h811.1862987c45.22327089 0 81.85759014 36.85927369 81.85759017 82.34201299 0 45.48089098-36.6343193 82.34016464-81.85759017 82.34016466H102.12491378c-45.22327089 0-81.89210419-36.85927369-81.89210418-82.34016466 0.00184833-45.48089098 36.67068166-82.34201299 81.89210418-82.34201299z" /></svg>